<svg version="1.1" id="Layer_1" xmlns="http://www.w3.org/2000/svg" xmlns:xlink="http://www.w3.org/1999/xlink" x="0px" y="0px"
	 width="100%" viewBox="0 0 197 193" enable-background="new 0 0 197 193" xml:space="preserve">
<path fill="#F2F2F4" opacity="1.000000" stroke="none" 
	d="
M1.000000,80.000000 
	C1.000000,53.333340 1.000000,27.166679 1.000000,1.000014 
	C66.666649,1.000009 132.333298,1.000009 197.999954,1.000005 
	C197.999969,65.333298 197.999969,129.666595 197.999985,193.999908 
	C132.333389,193.999939 66.666771,193.999939 1.000079,193.999969 
	C1.000000,156.166672 1.000000,118.333336 1.000000,80.000000 
M140.178528,21.036795 
	C103.708740,21.036415 67.238945,21.034147 30.769157,21.037201 
	C23.195915,21.037834 23.037315,21.203533 23.036718,28.989599 
	C23.034124,62.794941 23.035397,96.600281 23.035749,130.405624 
	C23.035782,133.403137 23.086824,136.401581 23.028574,139.397919 
	C22.963722,142.733795 24.476753,144.306549 27.862217,144.200546 
	C30.953949,144.103745 34.051102,144.180038 37.481754,144.180038 
	C37.481754,147.664291 37.572521,150.481506 37.460075,153.290604 
	C37.298958,157.315765 39.101700,159.125366 43.143570,158.937363 
	C46.050652,158.802170 48.969090,158.911072 52.000366,158.911072 
	C52.000366,161.497726 51.999783,163.321075 52.000465,165.144424 
	C52.003502,173.278641 52.026882,173.308762 59.979656,173.309280 
	C95.949875,173.311661 131.920090,173.313171 167.890305,173.307541 
	C175.073318,173.306427 175.303299,173.084869 175.306656,166.095642 
	C175.316254,146.112198 175.310333,126.128746 175.310410,106.145294 
	C175.310486,90.491585 175.310745,74.837883 175.310272,59.184177 
	C175.310013,50.007328 175.309433,50.007114 166.350601,50.000530 
	C164.596817,49.999245 162.843033,50.000343 160.911163,50.000343 
	C160.911163,46.659492 160.782883,43.995968 160.940231,41.349426 
	C161.196884,37.032990 159.230652,35.236107 154.995850,35.453720 
	C152.216995,35.596523 149.424866,35.480698 146.181381,35.480698 
	C146.181381,32.156967 146.056915,29.354807 146.212067,26.568214 
	C146.418503,22.860415 145.079361,20.784369 140.178528,21.036795 
z"/>
<path fill="#060607" opacity="1.000000" stroke="none" 
	d="
M140.641266,21.037678 
	C145.079361,20.784369 146.418503,22.860415 146.212067,26.568214 
	C146.056915,29.354807 146.181381,32.156967 146.181381,35.480698 
	C149.424866,35.480698 152.216995,35.596523 154.995850,35.453720 
	C159.230652,35.236107 161.196884,37.032990 160.940231,41.349426 
	C160.782883,43.995968 160.911163,46.659492 160.911163,50.000343 
	C162.843033,50.000343 164.596817,49.999245 166.350601,50.000530 
	C175.309433,50.007114 175.310013,50.007328 175.310272,59.184177 
	C175.310745,74.837883 175.310486,90.491585 175.310410,106.145294 
	C175.310333,126.128746 175.316254,146.112198 175.306656,166.095642 
	C175.303299,173.084869 175.073318,173.306427 167.890305,173.307541 
	C131.920090,173.313171 95.949875,173.311661 59.979656,173.309280 
	C52.026882,173.308762 52.003502,173.278641 52.000465,165.144424 
	C51.999783,163.321075 52.000366,161.497726 52.000366,158.911072 
	C48.969090,158.911072 46.050652,158.802170 43.143570,158.937363 
	C39.101700,159.125366 37.298958,157.315765 37.460075,153.290604 
	C37.572521,150.481506 37.481754,147.664291 37.481754,144.180038 
	C34.051102,144.180038 30.953949,144.103745 27.862217,144.200546 
	C24.476753,144.306549 22.963722,142.733795 23.028574,139.397919 
	C23.086824,136.401581 23.035782,133.403137 23.035749,130.405624 
	C23.035397,96.600281 23.034124,62.794941 23.036718,28.989599 
	C23.037315,21.203533 23.195915,21.037834 30.769157,21.037201 
	C67.238945,21.034147 103.708740,21.036415 140.641266,21.037678 
M153.699966,150.512680 
	C153.785126,150.023758 153.944595,149.534882 153.944855,149.045914 
	C153.963120,114.793518 153.976822,80.541115 153.936234,46.288776 
	C153.934998,45.250088 153.356110,44.212082 152.179367,43.067204 
	C150.433945,43.101120 148.688522,43.135036 146.263351,43.629917 
	C146.223969,75.728165 146.184586,107.826408 145.987396,140.618805 
	C144.634506,141.794464 143.281601,142.970108 141.005692,144.052139 
	C110.094261,144.042542 79.182816,144.021179 48.271458,144.062363 
	C46.903557,144.064178 45.536419,144.636444 44.065838,145.810715 
	C44.101818,147.555969 44.137794,149.301208 44.643410,151.715851 
	C45.133217,151.796570 45.622990,151.947708 46.112835,151.947952 
	C80.708839,151.964890 115.304863,151.978027 149.900818,151.936096 
	C150.948563,151.934830 151.995575,151.348160 153.000000,151.000000 
	C153.000000,151.000000 153.034409,151.042938 153.699966,150.512680 
M30.480711,136.809402 
	C31.132874,136.907715 31.784994,137.091751 32.437199,137.092056 
	C66.796547,137.107849 101.155907,137.118912 135.515167,137.062469 
	C136.650650,137.060593 137.784973,136.357117 139.064240,135.055328 
	C139.080429,129.565338 138.842270,124.058632 139.201691,118.591217 
	C139.443665,114.910583 137.785660,112.745949 135.119247,110.766106 
	C119.825798,99.410538 104.370331,88.257622 89.424667,76.459763 
	C85.517532,73.375526 82.956650,73.483757 79.519226,76.073631 
	C63.658226,88.023857 47.759560,99.924515 31.972847,111.971947 
	C30.891275,112.797325 30.085850,114.666962 30.055111,116.070724 
	C29.909555,122.718010 30.077887,129.372177 30.480711,136.809402 
M132.994186,68.413147 
	C134.788269,70.159286 136.582336,71.905426 138.856308,74.118637 
	C138.856308,58.101849 138.856308,43.221165 138.856308,28.361744 
	C137.950836,28.206331 137.471924,28.052383 136.992935,28.052147 
	C102.678413,28.035160 68.363647,28.090422 34.049721,27.944952 
	C29.985008,27.927721 29.984081,29.987740 29.991776,32.922142 
	C30.050312,55.243118 30.018806,77.564323 30.037006,99.885437 
	C30.038021,101.131004 30.230782,102.376419 30.411705,104.553314 
	C33.078312,102.692276 35.106247,101.363464 37.042236,99.912025 
	C51.418949,89.133575 65.839645,78.411896 80.094841,67.474693 
	C83.378845,64.955063 85.734467,64.515457 89.186539,67.373940 
	C95.550720,72.643776 102.382797,77.348541 109.665329,82.769165 
	C114.508781,77.659348 119.246078,72.975266 123.602806,67.960548 
	C126.778542,64.305168 129.490433,64.014442 132.994186,68.413147 
M61.098228,158.433594 
	C60.202686,160.781799 59.307144,163.130005 58.271702,165.845032 
	C95.863777,165.845032 131.904419,165.845032 167.866943,165.845032 
	C167.866943,129.690002 167.866943,93.984711 167.866943,58.356453 
	C165.198151,58.356453 162.963882,58.356453 160.349930,58.356453 
	C160.349930,60.514969 160.349945,62.326145 160.349945,64.137321 
	C160.349915,93.124062 160.354919,122.110809 160.346146,151.097549 
	C160.344040,158.059616 160.050323,158.343964 152.961212,158.346970 
	C122.641777,158.359818 92.322350,158.361923 61.098228,158.433594 
M128.666229,97.860138 
	C131.453445,99.884117 134.240677,101.908096 137.899216,104.564789 
	C138.702682,102.405090 139.759628,100.758568 139.861816,99.054771 
	C140.119690,94.755898 140.028992,90.428726 139.896713,86.118462 
	C139.858627,84.877251 139.494354,83.448807 138.788208,82.455589 
	C131.038803,71.555824 129.074554,71.400246 119.768730,80.709602 
	C118.712929,81.765808 117.685173,82.851669 116.598648,83.875191 
	C114.569801,85.786377 114.556488,87.367989 116.978378,89.082024 
	C120.758415,91.757248 124.384285,94.650330 128.666229,97.860138 
z"/>
<path fill="#42A83F" opacity="1.000000" stroke="none" 
	d="
M30.134373,136.023880 
	C30.077887,129.372177 29.909555,122.718010 30.055111,116.070724 
	C30.085850,114.666962 30.891275,112.797325 31.972847,111.971947 
	C47.759560,99.924515 63.658226,88.023857 79.519226,76.073631 
	C82.956650,73.483757 85.517532,73.375526 89.424667,76.459763 
	C104.370331,88.257622 119.825798,99.410538 135.119247,110.766106 
	C137.785660,112.745949 139.443665,114.910583 139.201691,118.591217 
	C138.842270,124.058632 139.080429,129.565338 138.529648,135.526459 
	C102.041496,136.006348 66.087936,136.015106 30.134373,136.023880 
z"/>
<path fill="#0393FC" opacity="1.000000" stroke="none" 
	d="
M132.730133,68.166405 
	C129.490433,64.014442 126.778542,64.305168 123.602806,67.960548 
	C119.246078,72.975266 114.508781,77.659348 109.665329,82.769165 
	C102.382797,77.348541 95.550720,72.643776 89.186539,67.373940 
	C85.734467,64.515457 83.378845,64.955063 80.094841,67.474693 
	C65.839645,78.411896 51.418949,89.133575 37.042236,99.912025 
	C35.106247,101.363464 33.078312,102.692276 30.411705,104.553314 
	C30.230782,102.376419 30.038021,101.131004 30.037006,99.885437 
	C30.018806,77.564323 30.050312,55.243118 29.991776,32.922142 
	C29.984081,29.987740 29.985008,27.927721 34.049721,27.944952 
	C68.363647,28.090422 102.678413,28.035160 136.992935,28.052147 
	C137.471924,28.052383 137.950836,28.206331 138.856308,28.361744 
	C138.856308,43.221165 138.856308,58.101849 138.856308,74.118637 
	C136.582336,71.905426 134.788269,70.159286 132.730133,68.166405 
M51.361877,36.464916 
	C41.419834,39.744736 36.176743,48.216599 38.328442,57.524525 
	C40.347679,66.259430 49.005733,72.453026 57.606094,71.314934 
	C67.363091,70.023766 74.471367,61.435570 73.405556,52.226048 
	C72.158264,41.448357 63.463013,34.924801 51.361877,36.464916 
z"/>
<path fill="#787879" opacity="1.000000" stroke="none" 
	d="
M61.550575,158.400787 
	C92.322350,158.361923 122.641777,158.359818 152.961212,158.346970 
	C160.050323,158.343964 160.344040,158.059616 160.346146,151.097549 
	C160.354919,122.110809 160.349915,93.124062 160.349945,64.137321 
	C160.349945,62.326145 160.349930,60.514969 160.349930,58.356453 
	C162.963882,58.356453 165.198151,58.356453 167.866943,58.356453 
	C167.866943,93.984711 167.866943,129.690002 167.866943,165.845032 
	C131.904419,165.845032 95.863777,165.845032 58.271702,165.845032 
	C59.307144,163.130005 60.202686,160.781799 61.550575,158.400787 
z"/>
<path fill="#7F3300" opacity="1.000000" stroke="none" 
	d="
M44.173775,151.046463 
	C44.137794,149.301208 44.101818,147.555969 44.572075,145.396759 
	C75.783424,144.988541 106.488541,145.006943 137.193588,144.963623 
	C138.772339,144.961395 140.350357,144.430511 141.928711,144.145767 
	C143.281601,142.970108 144.634506,141.794464 146.335770,139.966187 
	C146.789185,138.496704 146.986099,137.679825 146.986023,136.862961 
	C146.982956,105.631622 146.961823,74.400291 146.943100,43.168953 
	C148.688522,43.135036 150.433945,43.101120 152.597015,43.574425 
	C153.021255,79.735413 153.027832,115.389175 153.034409,151.042938 
	C153.034409,151.042938 153.000000,151.000000 152.550476,151.006851 
	C116.125229,151.024628 80.149498,151.035538 44.173775,151.046463 
z"/>
<path fill="#402B3D" opacity="1.000000" stroke="none" 
	d="
M128.370850,97.655624 
	C124.384285,94.650330 120.758415,91.757248 116.978378,89.082024 
	C114.556488,87.367989 114.569801,85.786377 116.598648,83.875191 
	C117.685173,82.851669 118.712929,81.765808 119.768730,80.709602 
	C129.074554,71.400246 131.038803,71.555824 138.788208,82.455589 
	C139.494354,83.448807 139.858627,84.877251 139.896713,86.118462 
	C140.028992,90.428726 140.119690,94.755898 139.861816,99.054771 
	C139.759628,100.758568 138.702682,102.405090 137.899216,104.564789 
	C134.240677,101.908096 131.453445,99.884117 128.370850,97.655624 
z"/>
<path fill="#71B66F" opacity="1.000000" stroke="none" 
	d="
M30.307543,136.416641 
	C66.087936,136.015106 102.041496,136.006348 138.457458,135.989136 
	C137.784973,136.357117 136.650650,137.060593 135.515167,137.062469 
	C101.155907,137.118912 66.796547,137.107849 32.437199,137.092056 
	C31.784994,137.091751 31.132874,136.907715 30.307543,136.416641 
z"/>
<path fill="#7E5438" opacity="1.000000" stroke="none" 
	d="
M44.408592,151.381165 
	C80.149498,151.035538 116.125229,151.024628 152.571945,151.024048 
	C151.995575,151.348160 150.948563,151.934830 149.900818,151.936096 
	C115.304863,151.978027 80.708839,151.964890 46.112835,151.947952 
	C45.622990,151.947708 45.133217,151.796570 44.408592,151.381165 
z"/>
<path fill="#7E5438" opacity="1.000000" stroke="none" 
	d="
M153.367188,150.777802 
	C153.027832,115.389175 153.021255,79.735413 153.030609,43.627701 
	C153.356110,44.212082 153.934998,45.250088 153.936234,46.288776 
	C153.976822,80.541115 153.963120,114.793518 153.944855,149.045914 
	C153.944595,149.534882 153.785126,150.023758 153.367188,150.777802 
z"/>
<path fill="#8E5732" opacity="1.000000" stroke="none" 
	d="
M141.467194,144.098953 
	C140.350357,144.430511 138.772339,144.961395 137.193588,144.963623 
	C106.488541,145.006943 75.783424,144.988541 44.623619,144.962906 
	C45.536419,144.636444 46.903557,144.064178 48.271458,144.062363 
	C79.182816,144.021179 110.094261,144.042542 141.467194,144.098953 
z"/>
<path fill="#8E5732" opacity="1.000000" stroke="none" 
	d="
M146.603226,43.399437 
	C146.961823,74.400291 146.982956,105.631622 146.986023,136.862961 
	C146.986099,137.679825 146.789185,138.496704 146.414673,139.619110 
	C146.184586,107.826408 146.223969,75.728165 146.603226,43.399437 
z"/>
<path fill="#050707" opacity="1.000000" stroke="none" 
	d="
M51.773979,36.385597 
	C63.463013,34.924801 72.158264,41.448357 73.405556,52.226048 
	C74.471367,61.435570 67.363091,70.023766 57.606094,71.314934 
	C49.005733,72.453026 40.347679,66.259430 38.328442,57.524525 
	C36.176743,48.216599 41.419834,39.744736 51.773979,36.385597 
M45.931412,59.421822 
	C50.452881,65.072540 56.915237,66.588974 62.056534,63.205669 
	C66.791489,60.089764 68.364647,53.209190 65.498909,48.149586 
	C62.527336,42.903103 56.059093,40.709507 50.956059,43.217628 
	C44.927441,46.180672 42.925339,51.936218 45.931412,59.421822 
z"/>
<path fill="#F5D206" opacity="1.000000" stroke="none" 
	d="
M45.739155,59.094719 
	C42.925339,51.936218 44.927441,46.180672 50.956059,43.217628 
	C56.059093,40.709507 62.527336,42.903103 65.498909,48.149586 
	C68.364647,53.209190 66.791489,60.089764 62.056534,63.205669 
	C56.915237,66.588974 50.452881,65.072540 45.739155,59.094719 
z"/>
</svg>